<svg xmlns="http://www.w3.org/2000/svg" width="21.556" height="21.6" viewBox="0 0 21.556 21.6">
  <g id="Page-1" transform="translate(0 0.051)">
    <g id="_037---Waypoint-Flag" data-name="037---Waypoint-Flag" transform="translate(0 -0.05)">
      <path id="Shape" d="M5.46,28.722l.4-.111a.718.718,0,0,0,.5-.885L1.814,11.476a.9.9,0,0,0-1.106-.623l-.051.014a.9.9,0,0,0-.623,1.106l4.541,16.25a.718.718,0,0,0,.885.5Z" transform="translate(0 -7.149)" fill="#bababa"/>
      <path id="Shape-2" data-name="Shape" d="M25.514,11.167a17.2,17.2,0,0,1-3.958-2.723.354.354,0,0,1-.1-.361,50.9,50.9,0,0,0,1.306-6.762c.045-.379-.16-.491-.376-.231C18.153,6.153,10.829.165,6.47,4.766a1.485,1.485,0,0,1,.123.309L9.539,15.623c4.367-4.545,11.664,1.406,15.89-3.645.216-.26.257-.736.086-.811Z" transform="translate(-4.064 -0.95)" fill="#bababa"/>
    </g>
  </g>
</svg>
