<svg xmlns="http://www.w3.org/2000/svg" width="256.464" height="85.838" viewBox="0 0 256.464 85.838">
  <g id="Group_945" data-name="Group 945" transform="translate(-29.268 -136.211)">
    <g id="Group_921" data-name="Group 921" transform="translate(29.268 136.211)">
      <g id="Group_920" data-name="Group 920" transform="translate(0 0)">
        <path id="Path_1589" data-name="Path 1589" d="M131.817,206.857a31.473,31.473,0,0,1-23.154,30.363q-.507.139-1.021.261-.311.074-.625.142-.249.054-.5.1a31.787,31.787,0,0,1-12.352,0q-.25-.05-.5-.1-.426-.092-.847-.2-.6-.147-1.186-.316a31.475,31.475,0,0,1-22.768-30.255v-.039a31.4,31.4,0,0,1,8.215-21.166q.809-.888,1.684-1.711l.179-.167a31.556,31.556,0,0,1,7.817-5.319q.682-.327,1.383-.622A31.474,31.474,0,0,1,131.814,206.4Q131.817,206.627,131.817,206.857Z" transform="translate(-67.261 -169.446)" fill="#d1d1d1"/>
        <path id="Path_1590" data-name="Path 1590" d="M128.98,218.879q-.471-.252-.967-.462a11.743,11.743,0,0,0-4.483-.929h0l.141-3.071h.472a2.335,2.335,0,0,0,1.617-.649q-.83-1.074-1.749-2.073a31.621,31.621,0,0,0-6.662-5.5H84.339q-.9.554-1.756,1.166a31.558,31.558,0,0,0-3.137,2.556l-.179.167q-.683.643-1.326,1.325l.244,1.153a2.338,2.338,0,0,0,2.288,1.854h.472L81,215.564l.088,1.924h0a11.743,11.743,0,0,0-4.483.929,11.851,11.851,0,0,0-5.882,5.429,31.365,31.365,0,0,0-1.263,6.766,11.705,11.705,0,0,0,.858,3.293A11.809,11.809,0,0,0,81.2,241.121h2.262a20.527,20.527,0,0,0,14.22,11.906l-.071.325-.087.4-1.583,7.263h-.718a2.487,2.487,0,0,0-2.485,2.383h-.1q.34.092.684.176.421.1.847.2.249.054.5.1a31.787,31.787,0,0,0,12.352,0q.25-.05.5-.1.314-.068.625-.142.513-.122,1.021-.261,1.286-.351,2.526-.808a2.487,2.487,0,0,0-2.3-1.545h-.718l-1.246-5.715h0l-.495-2.27a20.527,20.527,0,0,0,14.22-11.906h2.262a11.788,11.788,0,0,0,8.356-3.461q.124-.125.244-.252a31.741,31.741,0,0,0,.306-4.406q0-.23,0-.46A31.325,31.325,0,0,0,128.98,218.879ZM81.2,236.693a7.388,7.388,0,0,1,0-14.776h.086l.541,11.805a20.651,20.651,0,0,0,.311,2.971Zm42.209,0h-.938a20.652,20.652,0,0,0,.311-2.971l.541-11.805h.085a7.388,7.388,0,1,1,0,14.776Z" transform="translate(-67.763 -195.591)" fill="#868686"/>
        <g id="Group_917" data-name="Group 917">
          <g id="Group_899" data-name="Group 899" transform="translate(25.516 52.435)">
            <path id="Path_1591" data-name="Path 1591" d="M241.461,497.855q-.311.074-.625.142-.249.054-.5.1H227.986q-.25-.05-.5-.1-.426-.092-.847-.195l.522-2.4.52-2.383,1.583-7.263.157-.722.616-2.826h8.014l.616,2.826.495,2.27,1.246,5.715.52,2.383Z" transform="translate(-226.64 -482.212)" fill="#ffd31d"/>
          </g>
          <g id="Group_900" data-name="Group 900" transform="translate(28.141 52.435)">
            <path id="Path_1592" data-name="Path 1592" d="M252.747,482.211h-8.014l-.773,3.548a20.423,20.423,0,0,0,8.027,1.633h0q.946,0,1.871-.085Z" transform="translate(-243.96 -482.211)" fill="#ffab2e"/>
          </g>
          <g id="Group_901" data-name="Group 901" transform="translate(23.353 63.246)">
            <path id="Path_1593" data-name="Path 1593" d="M231.5,556.037a2.488,2.488,0,0,1-1.131,2.085q-.507.139-1.021.261-.311.074-.625.142h-13.35q-.426-.092-.847-.195-.6-.147-1.186-.316a2.481,2.481,0,0,1-.977-1.976c0-.035,0-.069,0-.1a2.487,2.487,0,0,1,2.485-2.383h14.162a2.487,2.487,0,0,1,2.485,2.383C231.5,555.968,231.5,556,231.5,556.037Z" transform="translate(-212.368 -553.55)" fill="#ffbf1f"/>
          </g>
          <g id="Group_902" data-name="Group 902" transform="translate(19.779 65.63)">
            <path id="Path_1594" data-name="Path 1594" d="M215.169,569.715a31.247,31.247,0,0,1-4.81,1.75q-.507.139-1.021.261-.311.074-.625.141-.249.054-.5.1a31.787,31.787,0,0,1-12.352,0q-.25-.05-.5-.1-.426-.092-.847-.195-.6-.147-1.186-.316a31.19,31.19,0,0,1-4.552-1.7,3.1,3.1,0,0,1,1.486-.379h23.313A3.1,3.1,0,0,1,215.169,569.715Z" transform="translate(-188.779 -569.277)" fill="#594a43"/>
          </g>
          <g id="Group_904" data-name="Group 904" transform="translate(0 19.721)">
            <g id="Group_903" data-name="Group 903">
              <path id="Path_1595" data-name="Path 1595" d="M123.181,273.562a11.809,11.809,0,0,0-10.77-7.216H69.967a11.74,11.74,0,0,0-4.483.929,11.787,11.787,0,0,0-3.755,2.531,11.814,11.814,0,0,0,8.356,20.172h42.209a11.831,11.831,0,0,0,10.484-6.36q.218-.418.4-.857a11.848,11.848,0,0,0,0-9.2ZM112.294,285.55H70.085a7.388,7.388,0,0,1,0-14.776h42.209a7.388,7.388,0,1,1,0,14.776Z" transform="translate(-58.268 -266.345)" fill="#ffbf1f"/>
            </g>
          </g>
          <g id="Group_905" data-name="Group 905" transform="translate(13.225 19.721)">
            <path id="Path_1596" data-name="Path 1596" d="M145.736,270.774h40.6a7.39,7.39,0,0,1,1.457.145l.2-4.458a11.9,11.9,0,0,0-1.544-.115H145.533Z" transform="translate(-145.533 -266.345)" fill="#ffab2e"/>
            <path id="Path_1597" data-name="Path 1597" d="M192.706,392.878c-.214.019-.431.029-.65.029H152.278a20.366,20.366,0,0,0,1.26,4.429h37.9A20.353,20.353,0,0,0,192.706,392.878Z" transform="translate(-151.256 -373.702)" fill="#ffab2e"/>
          </g>
          <g id="Group_906" data-name="Group 906" transform="translate(10.665 19.721)">
            <path id="Path_1598" data-name="Path 1598" d="M128.845,270.835a7.415,7.415,0,0,1,.949-.061h41.188l.2-4.429H129.676q-.521,0-1.034.055Z" transform="translate(-128.642 -266.345)" fill="#ffab2e"/>
            <path id="Path_1599" data-name="Path 1599" d="M174.431,397.479a20.39,20.39,0,0,0,1.056-4.429H135.036c-.072,0-.144,0-.215,0a20.39,20.39,0,0,0,1.057,4.432Z" transform="translate(-133.885 -373.846)" fill="#ffab2e"/>
          </g>
          <g id="Group_907" data-name="Group 907" transform="translate(11.454 14.371)">
            <path id="Path_1600" data-name="Path 1600" d="M155.316,272.457h0a20.489,20.489,0,0,1-20.478-19.83l-.989-21.584h42.934l-.989,21.584A20.489,20.489,0,0,1,155.316,272.457Z" transform="translate(-133.849 -231.043)" fill="#ffd31d"/>
          </g>
          <g id="Group_908" data-name="Group 908" transform="translate(11.454 14.371)">
            <path id="Path_1601" data-name="Path 1601" d="M176.483,237.592l.3-6.55H133.849l.157,3.426Z" transform="translate(-133.849 -231.043)" fill="#ffab2e"/>
          </g>
          <g id="Group_909" data-name="Group 909" transform="translate(7.996 8.43)">
            <path id="Path_1602" data-name="Path 1602" d="M157.791,200.061H114.122a2.339,2.339,0,0,1-2.288-1.854l-.751-3.544a2.338,2.338,0,0,1,2.288-2.823h45.171a2.338,2.338,0,0,1,2.288,2.823l-.751,3.544A2.339,2.339,0,0,1,157.791,200.061Z" transform="translate(-111.032 -191.84)" fill="#ffbf1f"/>
          </g>
          <g id="Group_910" data-name="Group 910" transform="translate(10.209 9.703)">
            <path id="Path_1603" data-name="Path 1603" d="M150.436,201.975H126.5a.867.867,0,0,1-.867-.867h0a.867.867,0,0,1,.867-.867h23.937a.867.867,0,0,1,.867.867h0A.867.867,0,0,1,150.436,201.975Z" transform="translate(-125.631 -200.24)" fill="#fff"/>
          </g>
          <g id="Group_911" data-name="Group 911" transform="translate(37.568 9.617)">
            <path id="Path_1604" data-name="Path 1604" d="M307.67,201.17A.9.9,0,0,0,306.4,199.9.9.9,0,0,0,307.67,201.17Z" transform="translate(-306.167 -199.667)" fill="#fff"/>
          </g>
          <g id="Group_912" data-name="Group 912" transform="translate(52.045)">
            <path id="Path_1605" data-name="Path 1605" d="M403.035,140.317a.9.9,0,0,1-.876-.705l-.444-2.309a.9.9,0,0,1,1.754-.386l.444,2.309a.9.9,0,0,1-.878,1.091Z" transform="translate(-401.694 -136.211)" fill="#ffd31d"/>
          </g>
          <g id="Group_913" data-name="Group 913" transform="translate(57.961 0.398)">
            <path id="Path_1606" data-name="Path 1606" d="M441.63,143.939a.9.9,0,0,1-.741-1.4l2.248-3.307a.9.9,0,0,1,1.484,1.012l-2.248,3.307A.9.9,0,0,1,441.63,143.939Z" transform="translate(-440.733 -138.836)" fill="#ffbf1f"/>
          </g>
          <g id="Group_914" data-name="Group 914" transform="translate(61.47 7.949)">
            <path id="Path_1607" data-name="Path 1607" d="M464.779,190.934a.9.9,0,0,1-.146-1.784l2.7-.474a.9.9,0,1,1,.294,1.772l-2.7.474A.894.894,0,0,1,464.779,190.934Z" transform="translate(-463.881 -188.663)" fill="#ffd31d"/>
          </g>
          <path id="Path_1608" data-name="Path 1608" d="M156.033,275.782c.235-2.846.559-4.715.559-4.715l-5.628.087q-.169,2.443-.2,4.628Z" transform="translate(-136.747 -250.63)" fill="#ffef42" opacity="0.8"/>
          <path id="Path_1609" data-name="Path 1609" d="M156.118,329.142h-5c.912,20.659,11.4,21.484,11.4,21.484C156.895,346.058,155.948,336.343,156.118,329.142Z" transform="translate(-137.05 -299.904)" fill="#ffef42" opacity="0.8"/>
          <g id="Group_916" data-name="Group 916" transform="translate(21.519 21.423)">
            <g id="Group_915" data-name="Group 915">
              <path id="Path_1610" data-name="Path 1610" d="M213.035,278.551l2.1,4.263a1.752,1.752,0,0,0,1.319.958l4.7.684a1.751,1.751,0,0,1,.971,2.987l-3.4,3.318a1.752,1.752,0,0,0-.5,1.55l.8,4.685a1.751,1.751,0,0,1-2.541,1.846l-4.208-2.212a1.75,1.75,0,0,0-1.63,0l-4.208,2.212A1.751,1.751,0,0,1,203.9,297l.8-4.685a1.751,1.751,0,0,0-.5-1.55l-3.4-3.318a1.751,1.751,0,0,1,.971-2.987l4.7-.684a1.751,1.751,0,0,0,1.319-.958l2.1-4.263A1.751,1.751,0,0,1,213.035,278.551Z" transform="translate(-200.265 -277.575)" fill="#fff"/>
            </g>
          </g>
          <path id="Path_1611" data-name="Path 1611" d="M352.829,205.265l-2.763-2.9a.508.508,0,0,0-.732,0l-2.85,2.931a.508.508,0,0,1-.872-.354V188.948a.574.574,0,0,1,.574-.574h6.945a.574.574,0,0,1,.574.574v15.967A.508.508,0,0,1,352.829,205.265Z" transform="translate(-302.066 -180.469)" fill="#0681e3"/>
          <path id="Path_1612" data-name="Path 1612" d="M355.267,194.031H349.93a.682.682,0,0,1-.682-.682h0a.682.682,0,0,1,.682-.682h5.338a.682.682,0,0,1,.682.682h0A.682.682,0,0,1,355.267,194.031Z" transform="translate(-305.151 -184.112)" fill="#8ecdff"/>
        </g>
        <g id="Group_918" data-name="Group 918" transform="translate(0.714 21.96)">
          <path id="Path_1613" data-name="Path 1613" d="M63.4,289.355l-.043,0a.421.421,0,0,1-.376-.461,8.665,8.665,0,0,1,1.085-3.388A10.815,10.815,0,0,1,65.93,283.1a11.873,11.873,0,0,1,2.555-1.933.421.421,0,0,1,.389.746h0a11.265,11.265,0,0,0-2.373,1.806,8.531,8.531,0,0,0-2.683,5.261A.421.421,0,0,1,63.4,289.355Z" transform="translate(-62.979 -281.116)" fill="#fff083"/>
        </g>
        <g id="Group_919" data-name="Group 919" transform="translate(55.208 34.361)">
          <path id="Path_1614" data-name="Path 1614" d="M422.983,368.779a.421.421,0,0,1-.038-.84,8.02,8.02,0,0,0,2.481-.759,6.645,6.645,0,0,0,3.512-3.946.421.421,0,0,1,.8.269,7.559,7.559,0,0,1-3.968,4.447,8.7,8.7,0,0,1-2.746.827Z" transform="translate(-422.563 -362.948)" fill="#fff083"/>
        </g>
        <path id="Path_1615" data-name="Path 1615" d="M169.3,283.081a3.623,3.623,0,0,0-1.966,1.966.167.167,0,0,1-.307,0,3.623,3.623,0,0,0-1.966-1.966.167.167,0,0,1,0-.307,3.624,3.624,0,0,0,1.966-1.966.167.167,0,0,1,.307,0,3.624,3.624,0,0,0,1.966,1.966A.167.167,0,0,1,169.3,283.081Z" transform="translate(-148.791 -258.808)" fill="#fff"/>
        <path id="Path_1616" data-name="Path 1616" d="M377.756,401.761a3.623,3.623,0,0,0-1.966,1.965.167.167,0,0,1-.307,0,3.623,3.623,0,0,0-1.966-1.965.167.167,0,0,1,0-.307,3.623,3.623,0,0,0,1.966-1.965.167.167,0,0,1,.307,0,3.623,3.623,0,0,0,1.966,1.965A.167.167,0,0,1,377.756,401.761Z" transform="translate(-325.656 -359.503)" fill="#fff"/>
        <path id="Path_1617" data-name="Path 1617" d="M134.554,242.588a6.375,6.375,0,0,0-3.458,3.458.293.293,0,0,1-.541,0,6.375,6.375,0,0,0-3.458-3.458.293.293,0,0,1,0-.541,6.375,6.375,0,0,0,3.458-3.458.293.293,0,0,1,.541,0,6.375,6.375,0,0,0,3.458,3.458A.293.293,0,0,1,134.554,242.588Z" transform="translate(-116.513 -222.922)" fill="#fff"/>
        <path id="Path_1618" data-name="Path 1618" d="M341.288,460.042a6.375,6.375,0,0,0-3.458,3.459.293.293,0,0,1-.541,0,6.375,6.375,0,0,0-3.458-3.459.293.293,0,0,1,0-.541,6.375,6.375,0,0,0,3.458-3.459.293.293,0,0,1,.541,0,6.375,6.375,0,0,0,3.458,3.459A.293.293,0,0,1,341.288,460.042Z" transform="translate(-291.917 -407.421)" fill="#fff"/>
      </g>
    </g>
    <g id="Group_936" data-name="Group 936" transform="translate(126.615 139.736)">
      <g id="Group_935" data-name="Group 935" transform="translate(0)">
        <circle id="Ellipse_3" data-name="Ellipse 3" cx="31.475" cy="31.475" r="31.475" transform="translate(0.942)" fill="#d1d1d1"/>
        <path id="Path_1619" data-name="Path 1619" d="M668.082,208.651a23.258,23.258,0,0,0-13.037-19.558,4.117,4.117,0,0,0,.523-2.013h0A4.125,4.125,0,0,0,654.188,184l7.507-17.647a23.77,23.77,0,0,0-14.811-5.68l-.424,1h0l-1.721,4.046L642,159.471a31.336,31.336,0,0,0-14.695,3.665l8.115,20.987a4.123,4.123,0,0,0-1.244,2.956h0a4.117,4.117,0,0,0,.523,2.013,23.287,23.287,0,0,0-12.444,26.317,31.48,31.48,0,0,0,45.831-6.759Z" transform="translate(-609.638 -159.471)" fill="#868686"/>
        <g id="Group_934" data-name="Group 934" transform="translate(0 0.052)">
          <g id="Group_922" data-name="Group 922" transform="translate(24.008 0.044)">
            <path id="Path_1620" data-name="Path 1620" d="M726.884,165.311l-8.543,20.083-.13.306H700.984l.13-.306,8.613-20.247,2.145-5.043A31.3,31.3,0,0,1,726.884,165.311Z" transform="translate(-700.984 -160.104)" fill="#0681e3"/>
          </g>
          <g id="Group_923" data-name="Group 923" transform="translate(24.138 1.041)">
            <path id="Path_1621" data-name="Path 1621" d="M712.177,166.68l-10.334,24.293.13.306h16.966l.156-.366Z" transform="translate(-701.843 -166.68)" fill="#0060ad"/>
          </g>
          <g id="Group_924" data-name="Group 924" transform="translate(15.449)">
            <path id="Path_1622" data-name="Path 1622" d="M670.554,185.453H653.327l-.13-.306-8.689-20.425a31.3,31.3,0,0,1,15.138-4.908l2.164,5.087,8.613,20.247Z" transform="translate(-644.508 -159.813)" fill="#0681e3"/>
          </g>
          <g id="Group_925" data-name="Group 925" transform="translate(22.184 22.318)">
            <rect id="Rectangle_57" data-name="Rectangle 57" width="21.395" height="8.271" rx="4.136" fill="#ffd31d"/>
            <path id="Path_1623" data-name="Path 1623" d="M725.1,313.311H711.78a.783.783,0,0,1-.783-.783h0a.783.783,0,0,1,.783-.783H725.1a.783.783,0,0,1,.783.783h0A.783.783,0,0,1,725.1,313.311Z" transform="translate(-707.656 -311.038)" fill="#fff"/>
          </g>
          <g id="Group_926" data-name="Group 926" transform="translate(0 16.497)">
            <circle id="Ellipse_4" data-name="Ellipse 4" cx="23.251" cy="23.251" r="23.251" transform="translate(0 32.882) rotate(-45)" fill="#ffbf1f"/>
          </g>
          <g id="Group_927" data-name="Group 927" transform="translate(10.851 29.645)">
            <path id="Path_1624" data-name="Path 1624" d="M614.939,376.3a.765.765,0,0,1-.765-.744,21.722,21.722,0,0,1,1.241-7.906l0-.008a21.563,21.563,0,0,1,5.536-8.4.764.764,0,0,1,.1-.077c.047-.032.118-.078.145-.1a11.544,11.544,0,0,1,1.565-1.305c.184-.135.374-.276.559-.418l.036-.026a22.232,22.232,0,0,1,1.887-1.179l.026-.014c.129-.064.257-.134.392-.208a8.5,8.5,0,0,1,.836-.416.765.765,0,0,1,.587,1.413,7.144,7.144,0,0,0-.689.346c-.137.075-.279.152-.428.227-.665.367-1.224.736-1.73,1.082-.193.149-.384.29-.57.426a10.116,10.116,0,0,0-1.377,1.143l-.014.014a2.135,2.135,0,0,1-.324.256,19.82,19.82,0,0,0-6.25,15.115.765.765,0,0,1-.744.786Z" transform="translate(-614.166 -355.43)" fill="#fff"/>
          </g>
          <g id="Group_930" data-name="Group 930" transform="translate(6.724 23.221)">
            <g id="Group_928" data-name="Group 928" transform="translate(0 0)">
              <circle id="Ellipse_5" data-name="Ellipse 5" cx="18.497" cy="18.497" r="18.497" transform="translate(0 26.158) rotate(-45)" fill="#ffd31d"/>
            </g>
            <path id="Path_1625" data-name="Path 1625" d="M695.572,396.288a18.5,18.5,0,0,1-26.275,26,18.5,18.5,0,1,0,26.275-26Z" transform="translate(-656.815 -383.672)" fill="#ffefab" opacity="0.5"/>
            <g id="Group_929" data-name="Group 929" transform="translate(7.662 7.662)">
              <path id="Path_1626" data-name="Path 1626" d="M638.724,383.917a18.5,18.5,0,0,1,33.166-11.267,18.5,18.5,0,1,0-30.577,20.711A18.412,18.412,0,0,1,638.724,383.917Z" transform="translate(-637.487 -363.597)" fill="#ffab2e"/>
            </g>
          </g>
          <g id="Group_932" data-name="Group 932" transform="translate(20.307 36.414)">
            <g id="Group_931" data-name="Group 931">
              <path id="Path_1627" data-name="Path 1627" d="M690.9,401.193l2.362,4.786a1.966,1.966,0,0,0,1.481,1.076l5.282.768a1.966,1.966,0,0,1,1.09,3.354l-3.822,3.726a1.967,1.967,0,0,0-.565,1.741l.9,5.261a1.966,1.966,0,0,1-2.853,2.073l-4.725-2.484a1.966,1.966,0,0,0-1.83,0l-4.725,2.484a1.967,1.967,0,0,1-2.853-2.073l.9-5.261a1.966,1.966,0,0,0-.566-1.741l-3.822-3.726a1.966,1.966,0,0,1,1.09-3.354l5.282-.768a1.967,1.967,0,0,0,1.481-1.076l2.362-4.786A1.966,1.966,0,0,1,690.9,401.193Z" transform="translate(-676.564 -400.096)" fill="#fff"/>
            </g>
          </g>
          <g id="Group_933" data-name="Group 933" transform="translate(11.21 52.847)">
            <path id="Path_1628" data-name="Path 1628" d="M617.969,509.249a.716.716,0,1,0-.716.716A.716.716,0,0,0,617.969,509.249Z" transform="translate(-616.536 -508.533)" fill="#fff"/>
          </g>
        </g>
      </g>
      <path id="Path_1629" data-name="Path 1629" d="M864.132,322.035a6.794,6.794,0,0,0-3.685,3.685.313.313,0,0,1-.576,0,6.794,6.794,0,0,0-3.685-3.685.313.313,0,0,1,0-.576,6.794,6.794,0,0,0,3.685-3.685.313.313,0,0,1,.576,0,6.794,6.794,0,0,0,3.685,3.685A.312.312,0,0,1,864.132,322.035Z" transform="translate(-808.494 -293.621)" fill="#fff"/>
      <path id="Path_1630" data-name="Path 1630" d="M856.66,395.2a3.622,3.622,0,0,0-1.965,1.965.167.167,0,0,1-.307,0,3.623,3.623,0,0,0-1.965-1.965.167.167,0,0,1,0-.307,3.623,3.623,0,0,0,1.965-1.966.167.167,0,0,1,.307,0,3.623,3.623,0,0,0,1.965,1.966A.167.167,0,0,1,856.66,395.2Z" transform="translate(-805.378 -357.457)" fill="#fff"/>
      <path id="Path_1631" data-name="Path 1631" d="M644.567,318.82a3.623,3.623,0,0,0-1.966,1.965.167.167,0,0,1-.307,0,3.624,3.624,0,0,0-1.966-1.965.167.167,0,0,1,0-.307,3.623,3.623,0,0,0,1.966-1.965.167.167,0,0,1,.307,0,3.623,3.623,0,0,0,1.966,1.965A.167.167,0,0,1,644.567,318.82Z" transform="translate(-625.426 -292.656)" fill="#fff"/>
      <path id="Path_1632" data-name="Path 1632" d="M597.107,257.233a6.375,6.375,0,0,0-3.459,3.459.293.293,0,0,1-.541,0,6.376,6.376,0,0,0-3.459-3.459.293.293,0,0,1,0-.541,6.376,6.376,0,0,0,3.459-3.459.293.293,0,0,1,.541,0,6.375,6.375,0,0,0,3.459,3.459A.293.293,0,0,1,597.107,257.233Z" transform="translate(-582.361 -238.872)" fill="#fff"/>
      <path id="Path_1633" data-name="Path 1633" d="M650.154,548.513a3.622,3.622,0,0,0-1.965,1.966.167.167,0,0,1-.307,0,3.623,3.623,0,0,0-1.966-1.966.167.167,0,0,1,0-.307,3.623,3.623,0,0,0,1.966-1.965.167.167,0,0,1,.307,0,3.622,3.622,0,0,0,1.965,1.965A.167.167,0,0,1,650.154,548.513Z" transform="translate(-630.166 -487.54)" fill="#fff"/>
    </g>
    <g id="Group_944" data-name="Group 944" transform="translate(223.755 140.967)">
      <path id="Path_1634" data-name="Path 1634" d="M1094.3,198.583a30.987,30.987,0,0,1-22.8,29.894q-.5.137-1.005.257-.307.073-.615.139-.245.053-.491.1a31.3,31.3,0,0,1-12.161,0q-.246-.049-.491-.1-.419-.09-.834-.192-.588-.144-1.167-.311a30.989,30.989,0,0,1-22.416-29.787v-.038a30.911,30.911,0,0,1,8.088-20.839q.8-.874,1.658-1.685l.176-.164a31.074,31.074,0,0,1,7.7-5.237q.672-.322,1.361-.612a30.988,30.988,0,0,1,42.994,28.123Q1094.3,198.356,1094.3,198.583Z" transform="translate(-1032.32 -167.594)" fill="#d1d1d1"/>
      <path id="Path_1635" data-name="Path 1635" d="M1140.856,250.128c.552-1.332,3.494-1.967,3.781-3.415.278-1.4-2.192-3.114-2.192-4.6s2.47-3.2,2.192-4.6c-.286-1.448-3.228-2.083-3.781-3.415-.562-1.355,1.063-3.883.257-5.088s-3.772-.675-4.8-1.7-.49-3.989-1.7-4.8-3.732.819-5.088.257c-1.332-.552-1.967-3.494-3.415-3.78-1.405-.278-3.114,2.192-4.6,2.192s-3.195-2.47-4.6-2.192c-1.448.286-2.083,3.228-3.415,3.781-1.355.562-3.883-1.063-5.088-.257s-.675,3.772-1.7,4.8-3.989.49-4.8,1.7.819,3.732.257,5.088c-.552,1.332-3.494,1.967-3.781,3.415-.278,1.4,2.192,3.114,2.192,4.6s-2.47,3.2-2.192,4.6c.286,1.448,3.228,2.083,3.781,3.415.562,1.355-1.063,3.883-.257,5.088s3.772.675,4.8,1.7a1.78,1.78,0,0,1,.37.584l-3.329,7.813a28.373,28.373,0,0,0,7.731,3.549q.533.153,1.075.286.382.093.767.177.225.049.452.094a28.809,28.809,0,0,0,11.194,0q.227-.045.453-.094.285-.061.566-.128.465-.111.925-.236c.543-.148,1.211,1.093,1.91,2.713a30.862,30.862,0,0,0,9.515-5.024l-2.965-6.318c.274-1.193.265-2.731.949-3.415,1.029-1.029,3.989-.49,4.8-1.7S1140.294,251.483,1140.856,250.128Z" transform="translate(-1088.345 -211.176)" fill="#868686"/>
      <g id="Group_943" data-name="Group 943" transform="translate(7.761 6.338)">
        <g id="Group_939" data-name="Group 939" transform="translate(0 31.217)">
          <path id="Path_1636" data-name="Path 1636" d="M1192.117,418.967l8.216-3.5a.832.832,0,0,1,1.091.439l11.762,27.607a.832.832,0,0,1-1,1.122l-9.8-2.947a.832.832,0,0,0-.981.42l-4.6,9.07a.832.832,0,0,1-1.507-.05l-11.759-27.6a.832.832,0,0,1,.439-1.091Z" transform="translate(-1168.319 -415.399)" fill="#0b6fbf"/>
          <path id="Path_1637" data-name="Path 1637" d="M1198.074,445.836c.156-.432,1.4-1.089.965-1.245l-7.917-2.853-7.153,3.047a.832.832,0,0,0-.439,1.091l8.63,20.256Z" transform="translate(-1168.319 -437.746)" fill="#0060ad"/>
          <g id="Group_937" data-name="Group 937" transform="translate(16.497 2.35)">
            <path id="Path_1638" data-name="Path 1638" d="M1289.48,430.907l11.853,26.911a.83.83,0,0,1-.377-.026l-1.513-.455-11.369-25.812Z" transform="translate(-1273.574 -430.907)" fill="#ffc239"/>
            <path id="Path_1639" data-name="Path 1639" d="M1204.439,494.158l-12.05-27.358,1.405-.619,11.543,26.207Z" transform="translate(-1192.389 -460.835)" fill="#ffc239"/>
          </g>
          <path id="Path_1640" data-name="Path 1640" d="M1104.673,418.967l-8.216-3.5a.832.832,0,0,0-1.091.439L1083.6,443.513a.832.832,0,0,0,1,1.122l9.8-2.947a.832.832,0,0,1,.981.42l4.6,9.07a.832.832,0,0,0,1.507-.05l11.759-27.6a.832.832,0,0,0-.439-1.091Z" transform="translate(-1083.534 -415.399)" fill="#0b6fbf"/>
          <g id="Group_938" data-name="Group 938" transform="translate(0.696 2.35)">
            <path id="Path_1641" data-name="Path 1641" d="M1099.98,430.907l-11.853,26.911a.83.83,0,0,0,.377-.026l1.512-.455,11.369-25.812Z" transform="translate(-1088.127 -430.907)" fill="#ffc239"/>
            <path id="Path_1642" data-name="Path 1642" d="M1186.76,494.158l12.05-27.358-1.406-.619-11.543,26.207Z" transform="translate(-1171.05 -460.835)" fill="#ffc239"/>
          </g>
        </g>
        <g id="Group_942" data-name="Group 942" transform="translate(0.208)">
          <path id="Path_1643" data-name="Path 1643" d="M1162.969,415.905a.832.832,0,0,0-1.091-.439l-8.216,3.5-1.33.567-1.33-.567-8.216-3.5a.832.832,0,0,0-1.091.439l-3.556,8.346a1.86,1.86,0,0,1,.663.4c1.029,1.029.49,3.989,1.7,4.8s3.733-.819,5.088-.257c1.332.552,1.967,3.494,3.415,3.78,1.4.278,3.113-2.192,4.6-2.192s3.2,2.47,4.6,2.192c1.448-.286,2.083-3.228,3.415-3.78,1.355-.562,3.883,1.063,5.088.257.651-.436.8-1.489.952-2.531Z" transform="translate(-1130.072 -384.183)" fill="#0060ad" opacity="0.716"/>
          <g id="Group_940" data-name="Group 940">
            <path id="Path_1644" data-name="Path 1644" d="M1129,232.566c0-1.487,2.47-3.2,2.192-4.6-.286-1.448-3.228-2.083-3.781-3.415-.562-1.355,1.063-3.883.257-5.088s-3.772-.675-4.8-1.7-.49-3.989-1.7-4.8-3.732.819-5.088.257c-1.332-.552-1.967-3.494-3.415-3.78-1.405-.278-3.114,2.192-4.6,2.192s-3.2-2.47-4.6-2.192c-1.448.286-2.083,3.228-3.415,3.78-1.355.562-3.883-1.063-5.088-.257s-.675,3.772-1.7,4.8-3.989.49-4.8,1.7.819,3.733.257,5.088c-.552,1.332-3.494,1.967-3.781,3.415-.278,1.4,2.192,3.114,2.192,4.6s-2.47,3.2-2.192,4.6c.286,1.448,3.228,2.083,3.781,3.415.562,1.355-1.063,3.883-.257,5.088s3.772.675,4.8,1.7.49,3.989,1.7,4.8,3.732-.819,5.088-.257c1.332.552,1.967,3.494,3.414,3.78,1.4.278,3.114-2.192,4.6-2.192s3.195,2.47,4.6,2.192c1.448-.286,2.083-3.228,3.415-3.78,1.355-.562,3.883,1.063,5.088.257s.675-3.772,1.7-4.8,3.989-.49,4.8-1.7-.819-3.733-.257-5.088c.552-1.332,3.494-1.967,3.781-3.415C1131.467,235.761,1129,234.053,1129,232.566Z" transform="translate(-1084.905 -209.413)" fill="#0681e3"/>
          </g>
          <circle id="Ellipse_6" data-name="Ellipse 6" cx="16.625" cy="16.625" r="16.625" transform="translate(6.327 6.259)" fill="#ffd31d"/>
          <path id="Path_1645" data-name="Path 1645" d="M1172.025,289.457a16.625,16.625,0,0,1-26.431,20.094,16.625,16.625,0,1,0,26.431-20.094Z" transform="translate(-1136.397 -277.327)" fill="#ffefab" opacity="0.5"/>
          <path id="Path_1646" data-name="Path 1646" d="M1128.066,268.62a16.624,16.624,0,0,1,27.05-12.948,16.624,16.624,0,1,0-22.265,24.618A16.57,16.57,0,0,1,1128.066,268.62Z" transform="translate(-1120.326 -244.457)" fill="#ffab2e"/>
          <g id="Group_941" data-name="Group 941" transform="translate(11.581 11.038)">
            <path id="Path_1647" data-name="Path 1647" d="M1174.958,283.292l2.247,4.552a1.87,1.87,0,0,0,1.408,1.023l5.024.73a1.87,1.87,0,0,1,1.036,3.19l-3.635,3.543a1.871,1.871,0,0,0-.538,1.655l.858,5a1.87,1.87,0,0,1-2.714,1.972l-4.493-2.362a1.87,1.87,0,0,0-1.74,0l-4.493,2.362a1.87,1.87,0,0,1-2.714-1.972l.858-5a1.87,1.87,0,0,0-.538-1.655l-3.635-3.543a1.87,1.87,0,0,1,1.036-3.19l5.024-.73a1.87,1.87,0,0,0,1.408-1.023l2.247-4.552A1.87,1.87,0,0,1,1174.958,283.292Z" transform="translate(-1161.322 -282.25)" fill="#fff"/>
          </g>
        </g>
      </g>
      <path id="Path_1648" data-name="Path 1648" d="M1102.455,443.33a3.689,3.689,0,0,0-2,2,.17.17,0,0,1-.313,0,3.689,3.689,0,0,0-2-2,.17.17,0,0,1,0-.313,3.689,3.689,0,0,0,2-2,.17.17,0,0,1,.313,0,3.69,3.69,0,0,0,2,2A.17.17,0,0,1,1102.455,443.33Z" transform="translate(-1088.077 -399.492)" fill="#fff"/>
      <path id="Path_1649" data-name="Path 1649" d="M1327.932,292.1a3.689,3.689,0,0,0-2,2,.17.17,0,0,1-.313,0,3.689,3.689,0,0,0-2-2,.17.17,0,0,1,0-.313,3.689,3.689,0,0,0,2-2,.17.17,0,0,1,.313,0,3.689,3.689,0,0,0,2,2A.17.17,0,0,1,1327.932,292.1Z" transform="translate(-1279.384 -271.183)" fill="#fff"/>
      <path id="Path_1650" data-name="Path 1650" d="M1114.16,390.959a6.491,6.491,0,0,0-3.521,3.521.3.3,0,0,1-.551,0,6.491,6.491,0,0,0-3.521-3.521.3.3,0,0,1,0-.55,6.492,6.492,0,0,0,3.521-3.521.3.3,0,0,1,.551,0,6.491,6.491,0,0,0,3.521,3.521A.3.3,0,0,1,1114.16,390.959Z" transform="translate(-1095.16 -353.499)" fill="#fff"/>
      <path id="Path_1651" data-name="Path 1651" d="M1320.539,228.038a6.491,6.491,0,0,0-3.521,3.521.3.3,0,0,1-.55,0,6.491,6.491,0,0,0-3.521-3.521.3.3,0,0,1,0-.55,6.49,6.49,0,0,0,3.521-3.521.3.3,0,0,1,.55,0,6.49,6.49,0,0,0,3.521,3.521A.3.3,0,0,1,1320.539,228.038Z" transform="translate(-1270.263 -215.268)" fill="#fff"/>
    </g>
  </g>
</svg>
