<svg xmlns="http://www.w3.org/2000/svg" width="16" height="10.962" viewBox="0 0 16 10.962">
  <g id="laptop" transform="translate(0 -13.439)">
    <path id="Path_1574" data-name="Path 1574" d="M14.518,21.735v-7.7a.594.594,0,0,0-.592-.592H2.074a.594.594,0,0,0-.593.592v7.7L0,23.513a.889.889,0,0,0,.889.888H15.111A.889.889,0,0,0,16,23.513ZM9.186,24.105H6.815a.148.148,0,0,1,0-.3H9.186a.148.148,0,0,1,.148.148A.15.15,0,0,1,9.186,24.105Zm-3.629-.592.452-.543H9.99l.453.543Zm8.127-2.826a.518.518,0,0,1-.517.517H2.832a.519.519,0,0,1-.517-.517v-6.2a.518.518,0,0,1,.517-.517H13.168a.519.519,0,0,1,.517.517S13.684,20.687,13.684,20.687Z" fill="#0060ad"/>
  </g>
</svg>
