<svg xmlns="http://www.w3.org/2000/svg" xmlns:xlink="http://www.w3.org/1999/xlink" width="48.669" height="41.158" viewBox="0 0 48.669 41.158">
  <defs>
    <linearGradient id="linear-gradient" x1="-0.516" x2="1" y2="1.245" gradientUnits="objectBoundingBox">
      <stop offset="0" stop-color="#0055a3"/>
      <stop offset="1" stop-color="#7fb126"/>
    </linearGradient>
  </defs>
  <g id="Group_860" data-name="Group 860" transform="translate(-246.732 -292.142)">
    <path id="Path_1558" data-name="Path 1558" d="M382.47,308.826c0,3.4.027,6.8-.008,10.2a14.037,14.037,0,0,1-2.715,7.94,14.322,14.322,0,0,1-9.269,6.041,27.3,27.3,0,0,1-4.992.292,1.779,1.779,0,0,1-1.689-1.861c-.042-1.229-.042-2.461,0-3.689a1.931,1.931,0,0,1,2.019-1.921,23.032,23.032,0,0,0,3.551-.251,7.3,7.3,0,0,0,5.6-6.648,5.38,5.38,0,0,0-.247-2.716,2.547,2.547,0,0,0-2.362-1.564c-2.115-.029-4.23.006-6.345-.025a5.78,5.78,0,0,1-3.2-.782,5.37,5.37,0,0,1-2.735-4.589c-.032-3.881-.047-7.764,0-11.645a5.443,5.443,0,0,1,5.329-5.425c3.9-.068,7.806-.042,11.709-.009a5.656,5.656,0,0,1,5.411,5.985c-.058,3.554-.013,7.11-.013,10.665Z" transform="translate(-87.132)" fill="url(#linear-gradient)"/>
    <path id="Path_1559" data-name="Path 1559" d="M269.136,308.453c0,3.478.051,6.957-.015,10.434a14.368,14.368,0,0,1-3.768,9.419,14.2,14.2,0,0,1-8.191,4.7,29.108,29.108,0,0,1-5.048.3,1.755,1.755,0,0,1-1.662-1.818c-.021-1.249-.018-2.5,0-3.747a1.9,1.9,0,0,1,1.912-1.9,26.512,26.512,0,0,0,3.667-.254,7.327,7.327,0,0,0,5.59-6.485,18.175,18.175,0,0,0,.012-1.9,2.639,2.639,0,0,0-2.568-2.538c-2.134-.036-4.268,0-6.4-.027a5.825,5.825,0,0,1-3.147-.761,5.323,5.323,0,0,1-2.76-4.68c0-3.824.059-7.649-.021-11.472a5.6,5.6,0,0,1,5.348-5.54c3.9-.023,7.807-.057,11.709.012a5.432,5.432,0,0,1,5.332,5.365C269.188,301.189,269.137,304.822,269.136,308.453Z" transform="translate(0 -0.007)" fill="url(#linear-gradient)"/>
  </g>
</svg>
