<svg xmlns="http://www.w3.org/2000/svg" width="16" height="13.601" viewBox="0 0 16 13.601">
  <g id="user-group" transform="translate(0 -29.114)">
    <path id="Path_1566" data-name="Path 1566" d="M130.413,35.765a3.075,3.075,0,0,0,2.738-3.326c0-1.837-.4-3.326-2.738-3.326s-2.738,1.489-2.738,3.326A3.075,3.075,0,0,0,130.413,35.765Z" transform="translate(-122.413 0)" fill="#0060ad"/>
    <path id="Path_1567" data-name="Path 1567" d="M78.968,201.385c-.051-3.2-.469-4.111-3.666-4.689a2.246,2.246,0,0,1-3,0c-3.163.571-3.606,1.469-3.664,4.585,0,.254-.007.268-.008.238,0,.055,0,.158,0,.336,0,0,.761,1.535,5.171,1.535s5.171-1.535,5.171-1.535c0-.115,0-.194,0-.249A2.026,2.026,0,0,1,78.968,201.385Z" transform="translate(-65.802 -160.675)" fill="#0060ad"/>
    <path id="Path_1568" data-name="Path 1568" d="M262.709,50.42a2.5,2.5,0,0,0,2.224-2.7c0-1.492-.327-2.7-2.224-2.7a3.171,3.171,0,0,0-.83.1,5.451,5.451,0,0,1,.5,2.572,4.561,4.561,0,0,1-.683,2.434A1.9,1.9,0,0,0,262.709,50.42Z" transform="translate(-250.909 -15.249)" fill="#0060ad"/>
    <path id="Path_1569" data-name="Path 1569" d="M288.111,184.933c-.041-2.6-.381-3.339-2.978-3.808a1.557,1.557,0,0,1-1.218.466l-.1,0a3.417,3.417,0,0,1,1.4,1.081,6.351,6.351,0,0,1,.8,3.712c1.747-.345,2.105-1.066,2.105-1.066,0-.094,0-.158,0-.2A1.525,1.525,0,0,1,288.111,184.933Z" transform="translate(-272.115 -145.746)" fill="#0060ad"/>
    <path id="Path_1570" data-name="Path 1570" d="M50.179,50.421a1.906,1.906,0,0,0,1.015-.3,4.56,4.56,0,0,1-.683-2.434,5.452,5.452,0,0,1,.5-2.572,3.17,3.17,0,0,0-.83-.1c-1.9,0-2.224,1.209-2.224,2.7A2.5,2.5,0,0,0,50.179,50.421Z" transform="translate(-45.979 -15.249)" fill="#0060ad"/>
    <path id="Path_1571" data-name="Path 1571" d="M4.3,181.587l-.1,0a1.557,1.557,0,0,1-1.218-.466c-2.6.469-2.937,1.209-2.978,3.808a1.578,1.578,0,0,1,0,.18c0,.044,0,.109,0,.2,0,0,.358.721,2.105,1.066a6.351,6.351,0,0,1,.8-3.712A3.416,3.416,0,0,1,4.3,181.587Z" transform="translate(0 -145.745)" fill="#0060ad"/>
  </g>
</svg>
