<svg xmlns="http://www.w3.org/2000/svg" width="16" height="14.063" viewBox="0 0 16 14.063">
  <g id="calendar_1_" data-name="calendar (1)" transform="translate(0 -30.988)">
    <path id="Path_1575" data-name="Path 1575" d="M.468,158.488H12.719a.47.47,0,0,0,.3-.109c.118-.1,2.8-2.408,2.965-7.392H2.827A9.407,9.407,0,0,1,.167,157.66a.469.469,0,0,0,.3.828Z" transform="translate(0 -116.25)" fill="#0060ad"/>
    <path id="Path_1576" data-name="Path 1576" d="M103.664,31.926H101.32v-.469a.469.469,0,1,0-.938,0v.469H98.008v-.469a.469.469,0,0,0-.938,0v.469H94.726v-.469a.469.469,0,0,0-.938,0v.469H91.445a.464.464,0,0,0-.469.469V33.8h13.157V32.394A.464.464,0,0,0,103.664,31.926Z" transform="translate(-88.133)" fill="#0060ad"/>
    <path id="Path_1577" data-name="Path 1577" d="M101.755,301.364a1.411,1.411,0,0,1-.9.327H90.977V303.1a.468.468,0,0,0,.469.469h12.219a.468.468,0,0,0,.469-.469v-5.255A9.29,9.29,0,0,1,101.755,301.364Z" transform="translate(-88.134 -258.515)" fill="#0060ad"/>
  </g>
</svg>
