<svg xmlns="http://www.w3.org/2000/svg" width="34.139" height="79.515" viewBox="0 0 34.139 79.515">
  <g id="Group_884" data-name="Group 884" transform="translate(-1280.861 -5200.52)">
    <path id="Path_1578" data-name="Path 1578" d="M0,0H31.139V79.515L15.79,60.521,0,79.515Z" transform="translate(1283.861 5200.52)" fill="#0060ad" opacity="0.254"/>
    <path id="Path_1561" data-name="Path 1561" d="M0,0H31.139V77.035L15.79,58.633,0,77.035Z" transform="translate(1280.861 5201)" fill="#e83e3e"/>
    <path id="Path_1579" data-name="Path 1579" d="M-7.115,0H-9.831V-5.546h-5.089V0h-2.725V-12.85h2.725v5.036h5.089V-12.85h2.716ZM7.792-6.442a6.973,6.973,0,0,1-1.582,4.9A5.865,5.865,0,0,1,1.674.176,5.865,5.865,0,0,1-2.861-1.538,7,7,0,0,1-4.443-6.46a6.9,6.9,0,0,1,1.586-4.9,5.932,5.932,0,0,1,4.548-1.692,5.85,5.85,0,0,1,4.531,1.705A6.99,6.99,0,0,1,7.792-6.442Zm-9.378,0A5.368,5.368,0,0,0-.769-3.2a2.86,2.86,0,0,0,2.443,1.09q3.261,0,3.261-4.333T1.692-10.784A2.879,2.879,0,0,0-.76-9.69,5.345,5.345,0,0,0-1.586-6.442ZM15.412,0H12.687V-10.582H9.2V-12.85h9.7v2.268H15.412Z" transform="translate(1290 5230) rotate(90)" fill="#fff"/>
  </g>
</svg>
